<svg width="892" height="895" viewBox="0 0 892 895" fill="none" xmlns="http://www.w3.org/2000/svg">
<path d="M503.907 30.6169L477.967 10.8092C459.093 -3.60306 432.907 -3.60309 414.033 10.8092L20.7068 311.151C3.15926 324.55 -4.16828 347.47 2.35255 368.563L153.629 857.888C160.451 879.953 180.853 895 203.95 895H688.049C711.147 895 731.549 879.953 738.371 857.888L889.647 368.563C896.168 347.47 888.841 324.55 871.293 311.151L835.038 283.467L793.337 414.651L678.776 787.185C674.3 801.741 660.852 811.674 645.623 811.674H243.808C228.578 811.674 215.13 801.741 210.654 787.185L85.2645 379.437C81.0061 365.59 85.8039 350.554 97.2961 341.732L423.593 91.2483C424.905 90.2412 426.271 89.3402 427.68 88.5452L503.907 30.6169Z" fill="black"/>
<path d="M431.373 183.275C441.518 175.497 455.621 175.497 465.766 183.275L709.093 369.827C718.469 377.016 722.384 389.278 718.907 400.569L625.363 704.37C621.713 716.225 610.758 724.314 598.352 724.314H298.787C286.381 724.314 275.426 716.225 271.775 704.37L255.786 652.443H335.103C336.025 652.632 336.976 652.73 337.945 652.73H554.055C560.287 652.73 565.783 648.649 567.584 642.683L635.025 419.273C636.709 413.692 634.794 407.65 630.202 404.059L454.705 266.818C449.591 262.819 442.409 262.818 437.295 266.818L276.33 392.695L194.402 453.088L178.231 400.569C174.754 389.278 178.669 377.016 188.046 369.827L431.373 183.275Z" fill="black"/>
</svg>
